<?xml version="1.0" encoding="utf-8"?>
<svg width="512" height="512" viewBox="0 0 512 512" fill="none" xmlns="http://www.w3.org/2000/svg">
    <!-- Background Circle -->
    <circle cx="256" cy="256" r="248" fill="#0F1A2F" stroke="#00F2FF" stroke-width="4"/>

    <!-- Light Bulb Path (Innovation) -->
    <path d="M256 120C207.4 120 168 159.4 168 208C168 242.8 186.4 273.2 214.8 289.6C220.8 293.6 224 300.4 224 307.6V328C224 341.2 234.8 352 248 352H264C277.2 352 288 341.2 288 328V307.6C288 300.4 291.2 293.6 297.2 289.6C325.6 273.2 344 242.8 344 208C344 159.4 304.6 120 256 120Z"
          fill="url(#lightGradient)"/>

    <!-- Connector Lines (Community) -->
    <path d="M248 368V384H264V368H248ZM248 400V416H264V400H248Z"
          fill="#00F2FF"/>

    <!-- Brain Circuits (AI) -->
    <path d="M176 208C176 164.2 211.2 128 256 128M336 208C336 251.8 300.8 288 256 288"
          stroke="#FFD700"
          stroke-width="8"
          stroke-linecap="round"
          stroke-dasharray="4 12"/>

    <!-- Pulse Effect -->
    <circle cx="256" cy="256" r="180"
            stroke="url(#pulseGradient)"
            stroke-width="2"
            stroke-dasharray="4 8"
            fill="none">
        <animateTransform
            attributeName="transform"
            type="rotate"
            from="0 256 256"
            to="360 256 256"
            dur="8s"
            repeatCount="indefinite"/>
    </circle>

    <!-- Gradients -->
    <defs>
        <linearGradient id="lightGradient" x1="168" y1="120" x2="344" y2="352" gradientUnits="userSpaceOnUse">
            <stop offset="0" stop-color="#FFD700"/>
            <stop offset="1" stop-color="#FF8C00"/>
        </linearGradient>

        <linearGradient id="pulseGradient" x1="76" y1="256" x2="436" y2="256" gradientUnits="userSpaceOnUse">
            <stop offset="0" stop-color="#00F2FF" stop-opacity="0"/>
            <stop offset="0.5" stop-color="#00F2FF"/>
            <stop offset="1" stop-color="#00F2FF" stop-opacity="0"/>
        </linearGradient>
    </defs>
</svg>
